REM DIRINDEX 1\2,1\3,1\4,1\5
REM DIRNAME "folder01","folder02","folder03","folder04","folder05"
TITLE ""
FILE "P1Q_t_0510-0519.mp3" MP3
  TRACK 01 AUDIO
    TITLE "0:"
    INDEX 01 00:00:00
  TRACK 02 AUDIO
    TITLE "3:cjc173_2462"
    INDEX 01 00:00:14
  TRACK 03 AUDIO
    TITLE "0:"
    INDEX 01 00:01:23
  TRACK 04 AUDIO
    TITLE "4:cjc173_2463"
    INDEX 01 00:01:47
  TRACK 05 AUDIO
    TITLE "0:"
    INDEX 01 00:05:10
  TRACK 06 AUDIO
    TITLE "5:cjc173_2464"
    INDEX 01 00:05:27
  TRACK 07 AUDIO
    TITLE "0:"
    INDEX 01 00:09:15
  TRACK 08 AUDIO
    TITLE "3:cjc173_2465"
    INDEX 01 00:09:62
  TRACK 09 AUDIO
    TITLE "0:"
    INDEX 01 00:11:04
  TRACK 10 AUDIO
    TITLE "4:cjc173_2466"
    INDEX 01 00:11:26
  TRACK 11 AUDIO
    TITLE "0:"
    INDEX 01 00:15:22
  TRACK 12 AUDIO
    TITLE "5:cjc173_2467"
    INDEX 01 00:15:41
  TRACK 13 AUDIO
    TITLE "0:"
    INDEX 01 00:20:52
  TRACK 14 AUDIO
    TITLE "3:cjc173_2468"
    INDEX 01 00:21:22
  TRACK 15 AUDIO
    TITLE "0:"
    INDEX 01 00:22:41
  TRACK 16 AUDIO
    TITLE "4:cjc173_2469"
    INDEX 01 00:22:63
  TRACK 17 AUDIO
    TITLE "0:"
    INDEX 01 00:26:08
  TRACK 18 AUDIO
    TITLE "5:cjc173_2470"
    INDEX 01 00:26:27
  TRACK 19 AUDIO
    TITLE "0:"
    INDEX 01 00:30:37
  TRACK 20 AUDIO
    TITLE "3:cjc173_2471"
    INDEX 01 00:31:07
  TRACK 21 AUDIO
    TITLE "0:"
    INDEX 01 00:32:34
  TRACK 22 AUDIO
    TITLE "4:cjc173_2472"
    INDEX 01 00:32:59
  TRACK 23 AUDIO
    TITLE "0:"
    INDEX 01 00:35:60
  TRACK 24 AUDIO
    TITLE "5:cjc173_2473"
    INDEX 01 00:36:06
  TRACK 25 AUDIO
    TITLE "0:"
    INDEX 01 00:40:29
  TRACK 26 AUDIO
    TITLE "3:cjc173_2474"
    INDEX 01 00:41:09
  TRACK 27 AUDIO
    TITLE "0:"
    INDEX 01 00:42:19
  TRACK 28 AUDIO
    TITLE "4:cjc173_2475"
    INDEX 01 00:42:38
  TRACK 29 AUDIO
    TITLE "0:"
    INDEX 01 00:44:04
  TRACK 30 AUDIO
    TITLE "5:cjc173_2476"
    INDEX 01 00:44:23
  TRACK 31 AUDIO
    TITLE "0:"
    INDEX 01 00:48:00
  TRACK 32 AUDIO
    TITLE "3:cjc173_2477"
    INDEX 01 00:48:45
  TRACK 33 AUDIO
    TITLE "0:"
    INDEX 01 00:49:62
  TRACK 34 AUDIO
    TITLE "4:cjc173_2478"
    INDEX 01 00:50:08
  TRACK 35 AUDIO
    TITLE "0:"
    INDEX 01 00:53:54
  TRACK 36 AUDIO
    TITLE "5:cjc173_2479"
    INDEX 01 00:53:73
  TRACK 37 AUDIO
    TITLE "0:"
    INDEX 01 00:58:68
  TRACK 38 AUDIO
    TITLE "3:cjc173_2480"
    INDEX 01 00:59:40
  TRACK 39 AUDIO
    TITLE "0:"
    INDEX 01 01:00:50
  TRACK 40 AUDIO
    TITLE "4:cjc173_2481"
    INDEX 01 01:00:73
  TRACK 41 AUDIO
    TITLE "0:"
    INDEX 01 01:03:68
  TRACK 42 AUDIO
    TITLE "5:cjc173_2482"
    INDEX 01 01:04:12
  TRACK 43 AUDIO
    TITLE "0:"
    INDEX 01 01:08:43
  TRACK 44 AUDIO
    TITLE "3:cjc173_2483"
    INDEX 01 01:09:15
  TRACK 45 AUDIO
    TITLE "0:"
    INDEX 01 01:10:25
  TRACK 46 AUDIO
    TITLE "4:cjc173_2484"
    INDEX 01 01:10:46
  TRACK 47 AUDIO
    TITLE "0:"
    INDEX 01 01:13:43
  TRACK 48 AUDIO
    TITLE "5:cjc173_2485"
    INDEX 01 01:13:62
  TRACK 49 AUDIO
    TITLE "0:"
    INDEX 01 01:18:16
  TRACK 50 AUDIO
    TITLE "3:cjc173_2486"
    INDEX 01 01:18:61
  TRACK 51 AUDIO
    TITLE "0:"
    INDEX 01 01:20:17
  TRACK 52 AUDIO
    TITLE "4:cjc173_2487"
    INDEX 01 01:20:39
  TRACK 53 AUDIO
    TITLE "0:"
    INDEX 01 01:23:35
  TRACK 54 AUDIO
    TITLE "5:cjc173_2488"
    INDEX 01 01:23:55
  TRACK 55 AUDIO
    TITLE "0:"
    INDEX 01 01:29:40
  TRACK 56 AUDIO
    TITLE "3:cjc173_2489"
    INDEX 01 01:30:10
  TRACK 57 AUDIO
    TITLE "0:"
    INDEX 01 01:31:37
  TRACK 58 AUDIO
    TITLE "4:cjc173_2490"
    INDEX 01 01:31:62
  TRACK 59 AUDIO
    TITLE "0:"
    INDEX 01 01:35:48
  TRACK 60 AUDIO
    TITLE "5:cjc173_2491"
    INDEX 01 01:35:68
  TRACK 61 AUDIO
    TITLE "0:"
    INDEX 01 01:39:54
